<svg width="72" height="72" viewBox="0 0 72 72" fill="none" xmlns="http://www.w3.org/2000/svg">
<mask id="mask0_2239_3886" style="mask-type:alpha" maskUnits="userSpaceOnUse" x="3" y="0" width="65" height="72">
<path d="M35.2492 0L3.34091 17.8544L3.36495 53.9373L35.1501 72L67.1591 53.9519V17.8544L35.2492 0Z" fill="#FF00FF"/>
</mask>
<g mask="url(#mask0_2239_3886)">
<path d="M64.6593 19.3203V52.4912L35.1544 69.127L5.86337 52.4814L5.84188 19.3193L35.2491 2.86426L64.6593 19.3203Z" fill="#D2FB95" stroke="#AAD36D" stroke-width="5"/>
<path d="M55.8067 47.0383L55.3706 48H44.8124L34.6317 40.7508C36.5911 39.1496 38.5855 37.6202 40.6044 36.1733L55.8067 47.0383ZM111 12C111 12 58.6371 13.7253 23.7343 47.9824H14.2982L13.5 46.7621C19.917 40.712 48.6175 14.7785 111 12ZM33.053 30.7771C30.4561 32.0178 28.0682 33.2754 25.874 34.516L14.2906 26.2699L14.8568 25.2178L33.053 30.7771Z" fill="#12121B"/>
<path d="M64.1592 19.6133V52.1992L35.1553 68.5527L6.36328 52.1904L6.3418 19.6123L35.249 3.4375L64.1592 19.6133Z" stroke="#AAD36D" stroke-width="6"/>
</g>
</svg>
