<svg width="32" height="32" viewBox="0 0 32 32" fill="none" xmlns="http://www.w3.org/2000/svg">
<path d="M31.5211 19.8706C29.3839 28.442 20.7014 33.6585 12.128 31.521C3.55811 29.384 -1.65895 20.7021 0.479281 12.1312C2.61551 3.55876 11.2979 -1.65819 19.8688 0.478793C28.4418 2.61577 33.6583 11.2987 31.5211 19.8706Z" fill="#F7931A"/>
<circle opacity="0.3" cx="16" cy="16" r="12" fill="url(#paint0_linear_20058557_6184)"/>
<mask id="mask0_20058557_6184" style="mask-type:alpha" maskUnits="userSpaceOnUse" x="0" y="0" width="32" height="32">
<path fill-rule="evenodd" clip-rule="evenodd" d="M16 32C24.8366 32 32 24.8366 32 16C32 7.16344 24.8366 0 16 0C7.16344 0 0 7.16344 0 16C0 24.8366 7.16344 32 16 32ZM16 28C22.6274 28 28 22.6274 28 16C28 9.37258 22.6274 4 16 4C9.37258 4 4 9.37258 4 16C4 22.6274 9.37258 28 16 28Z" fill="#53AE94"/>
</mask>
<g mask="url(#mask0_20058557_6184)">
<path d="M3.45963 26.8637C2.94679 26.2716 2.47618 25.6443 2.05127 24.9863L11.0392 15.9997L2.05127 7.01222C2.47641 6.35465 2.94701 5.72762 3.45963 5.13571L14.3241 15.9997L3.45963 26.8637ZM0.869709 9.18227C0.517087 9.96334 0.226291 10.7709 0 11.5974L4.4025 15.9997L0 20.402C0.226442 21.2285 0.517233 22.036 0.869709 22.8171L7.68746 15.9997L0.869709 9.18227ZM16.0005 17.6787L5.13595 28.5427C5.72731 29.056 6.35443 29.5266 7.01255 29.951L16.0005 20.9635L24.9875 29.951C25.6456 29.5266 26.2727 29.056 26.864 28.5427L16.0005 17.6787ZM22.8182 31.1334L15.9995 24.3151L9.18179 31.1325C9.96301 31.4848 10.7705 31.7756 11.597 32.0022L15.9995 27.5999L20.403 32.0022C21.2294 31.7743 22.0369 31.4826 22.8182 31.1297V31.1334ZM16.0005 14.3235L26.864 3.45947C26.2724 2.94674 25.6453 2.47644 24.9875 2.05209L16.0005 11.0387L7.01255 2.05209C6.35465 2.47644 5.72756 2.94674 5.13595 3.45947L16.0005 14.3235ZM31.1303 22.8171C31.4829 22.0361 31.7737 21.2286 32 20.402L27.5975 15.9997L32 11.5974C31.7736 10.7706 31.4828 9.96279 31.1303 9.18136L24.3125 15.9997L31.1303 22.8171ZM20.9608 15.9997L29.9487 7.01222C29.5238 6.3545 29.0532 5.72745 28.5404 5.13571L17.6795 15.9997L28.544 26.8637C29.0569 26.2716 29.5275 25.6443 29.9524 24.9863L20.9608 15.9997ZM15.9995 7.6871L22.8182 0.869669C22.037 0.517354 21.2295 0.226581 20.403 0L15.9995 4.4023L11.597 0C10.7707 0.226986 9.96317 0.517749 9.18179 0.869669L15.9995 7.6871Z" fill="white"/>
</g>
<path d="M23.2686 14.1464C23.5872 12.0171 21.966 10.8725 19.7493 10.1089L20.4683 7.22463L18.7126 6.78708L18.0126 9.59538C17.551 9.48037 17.077 9.37186 16.6059 9.26435L17.311 6.43755L15.5563 6L14.8367 8.88331C14.4547 8.7963 14.0796 8.71029 13.7156 8.61978L13.7176 8.61078L11.2964 8.00621L10.8293 9.88141C10.8293 9.88141 12.1319 10.1799 12.1044 10.1984C12.8155 10.376 12.944 10.8465 12.9225 11.2196L12.1034 14.5054C12.1524 14.5179 12.2159 14.5359 12.286 14.5639C12.2274 14.5494 12.1649 14.5334 12.1004 14.5179L10.9523 19.1209C10.8653 19.3369 10.6448 19.661 10.1477 19.5379C10.1652 19.5634 8.87159 19.2194 8.87159 19.2194L8 21.2291L10.2847 21.7987C10.7098 21.9052 11.1263 22.0167 11.5364 22.1217L10.8098 25.039L12.5635 25.4766L13.2831 22.5903C13.7621 22.7203 14.2272 22.8403 14.6822 22.9533L13.9651 25.8261L15.7208 26.2637L16.4474 23.3518C19.4412 23.9184 21.6925 23.6899 22.6401 20.9821C23.4036 18.8019 22.6021 17.5442 21.0269 16.7241C22.174 16.4596 23.0381 15.705 23.2686 14.1464ZM19.2572 19.7715C18.7146 21.9517 15.0438 20.7731 13.8536 20.4775L14.8177 16.6126C16.0079 16.9097 19.8243 17.4977 19.2572 19.7715ZM19.8003 14.1149C19.3052 16.0981 16.2499 15.0905 15.2588 14.8434L16.1329 11.3381C17.124 11.5851 20.3158 12.0461 19.8003 14.1149Z" fill="white"/>
<defs>
<linearGradient id="paint0_linear_20058557_6184" x1="16" y1="4" x2="16" y2="28" gradientUnits="userSpaceOnUse">
<stop/>
<stop offset="1" stop-opacity="0"/>
</linearGradient>
</defs>
</svg>
