<svg width="512" height="512" viewBox="0 0 512 512" fill="none" xmlns="http://www.w3.org/2000/svg">
<path d="M512 199.002V98.1333C512 79.2821 496.718 64 477.867 64H0V453.333H477.867C496.718 453.333 512 438.051 512 419.2V317.265C491.596 305.461 477.867 283.402 477.867 258.133C477.867 232.865 491.596 210.806 512 199.002Z" fill="url(#paint0_radial_4669_23984)"/>
<path d="M79.0605 187.264V324.352H109.205V187.264H79.0605Z" fill="white"/>
<path d="M165.83 299.008V212.608H187.334C194.758 212.608 200.966 213.696 205.958 215.872C211.078 217.92 215.174 220.928 218.246 224.896C221.318 228.864 223.494 233.664 224.774 239.296C226.182 244.8 226.886 251.008 226.886 257.92C226.886 265.472 225.926 271.872 224.006 277.12C222.086 282.368 219.526 286.656 216.326 289.984C213.126 293.184 209.478 295.488 205.382 296.896C201.286 298.304 197.062 299.008 192.71 299.008H165.83ZM135.686 187.264V324.352H194.822C205.318 324.352 214.406 322.624 222.086 319.168C229.894 315.584 236.358 310.72 241.478 304.576C246.726 298.432 250.63 291.136 253.19 282.688C255.75 274.24 257.03 265.024 257.03 255.04C257.03 243.648 255.43 233.728 252.23 225.28C249.158 216.832 244.806 209.792 239.174 204.16C233.67 198.528 227.078 194.304 219.398 191.488C211.846 188.672 203.654 187.264 194.822 187.264H135.686Z" fill="white"/>
<path d="M302.19 256.384C302.19 250.368 302.83 244.544 304.11 238.912C305.518 233.28 307.694 228.288 310.638 223.936C313.582 219.456 317.422 215.936 322.158 213.376C326.894 210.688 332.654 209.344 339.438 209.344C346.222 209.344 351.982 210.688 356.718 213.376C361.454 215.936 365.294 219.456 368.238 223.936C371.182 228.288 373.294 233.28 374.574 238.912C375.982 244.544 376.686 250.368 376.686 256.384C376.686 262.144 375.982 267.776 374.574 273.28C373.294 278.656 371.182 283.52 368.238 287.872C365.294 292.224 361.454 295.744 356.718 298.432C351.982 300.992 346.222 302.272 339.438 302.272C332.654 302.272 326.894 300.992 322.158 298.432C317.422 295.744 313.582 292.224 310.638 287.872C307.694 283.52 305.518 278.656 304.11 273.28C302.83 267.776 302.19 262.144 302.19 256.384ZM272.046 256.384C272.046 266.368 273.582 275.712 276.654 284.416C279.726 292.992 284.142 300.48 289.902 306.88C295.662 313.28 302.702 318.336 311.022 322.048C319.47 325.632 328.942 327.424 339.438 327.424C350.062 327.424 359.534 325.632 367.854 322.048C376.174 318.336 383.214 313.28 388.974 306.88C394.734 300.48 399.15 292.992 402.222 284.416C405.294 275.712 406.83 266.368 406.83 256.384C406.83 246.144 405.294 236.672 402.222 227.968C399.15 219.136 394.734 211.456 388.974 204.928C383.214 198.4 376.174 193.28 367.854 189.568C359.534 185.856 350.062 184 339.438 184C328.942 184 319.47 185.856 311.022 189.568C302.702 193.28 295.662 198.4 289.902 204.928C284.142 211.456 279.726 219.136 276.654 227.968C273.582 236.672 272.046 246.144 272.046 256.384Z" fill="white"/>
<defs>
<radialGradient id="paint0_radial_4669_23984" cx="0" cy="0" r="1" gradientUnits="userSpaceOnUse" gradientTransform="translate(557.141 454.157) scale(753.77 573.114)">
<stop stop-color="#02E1B3"/>
<stop offset="0.35" stop-color="#0B54FF"/>
<stop offset="0.43" stop-color="#1152FF"/>
<stop offset="0.54" stop-color="#204BFF"/>
<stop offset="0.66" stop-color="#3B40FE"/>
<stop offset="0.8" stop-color="#5F31FE"/>
<stop offset="0.93" stop-color="#8E1EFD"/>
<stop offset="1" stop-color="#A714FD"/>
</radialGradient>
</defs>
</svg>
