<svg width="512" height="512" viewBox="0 0 512 512" fill="none" xmlns="http://www.w3.org/2000/svg">
<circle cx="256" cy="256" r="256" fill="url(#paint0_radial_4609_14592)"/>
<path d="M105.516 386.364C99.3615 379.26 93.7141 371.732 88.6152 363.835L196.47 255.996L88.6152 148.147C93.7169 140.256 99.3641 132.731 105.516 125.628L235.89 255.996L105.516 386.364ZM74.4365 174.187C70.205 183.56 66.7155 193.25 64 203.169L116.83 255.996L64 308.824C66.7173 318.742 70.2068 328.432 74.4365 337.806L156.25 255.996L74.4365 174.187ZM256.005 276.144L125.631 406.512C132.728 412.672 140.253 418.319 148.151 423.412L256.005 315.562L363.849 423.412C371.747 418.319 379.272 412.672 386.369 406.512L256.005 276.144ZM337.819 437.601L255.995 355.781L174.181 437.59C183.556 441.818 193.247 445.307 203.164 448.026L255.995 395.198L308.836 448.026C318.753 445.291 328.443 441.791 337.819 437.557V437.601ZM256.005 235.882L386.369 105.514C379.269 99.3609 371.744 93.7173 363.849 88.6251L256.005 196.464L148.151 88.6251C140.256 93.7173 132.731 99.3609 125.631 105.514L256.005 235.882ZM437.563 337.806C441.795 328.433 445.284 318.743 448 308.824L395.17 255.996L448 203.169C445.283 193.247 441.793 183.554 437.563 174.176L355.75 255.996L437.563 337.806ZM315.53 255.996L423.385 148.147C418.286 140.254 412.638 132.729 406.484 125.628L276.154 255.996L406.528 386.364C412.682 379.26 418.33 371.732 423.429 363.835L315.53 255.996ZM255.995 156.245L337.819 74.436C328.444 70.2082 318.753 66.719 308.836 64L255.995 116.828L203.164 64C193.248 66.7238 183.558 70.213 174.181 74.436L255.995 156.245Z" fill="url(#paint1_radial_4609_14592)"/>
<path d="M105.516 386.364C99.3615 379.26 93.7141 371.732 88.6152 363.835L196.47 255.996L88.6152 148.147C93.7169 140.256 99.3641 132.731 105.516 125.628L235.89 255.996L105.516 386.364ZM74.4365 174.187C70.205 183.56 66.7155 193.25 64 203.169L116.83 255.996L64 308.824C66.7173 318.742 70.2068 328.432 74.4365 337.806L156.25 255.996L74.4365 174.187ZM256.005 276.144L125.631 406.512C132.728 412.672 140.253 418.319 148.151 423.412L256.005 315.562L363.849 423.412C371.747 418.319 379.272 412.672 386.369 406.512L256.005 276.144ZM337.819 437.601L255.995 355.781L174.181 437.59C183.556 441.818 193.247 445.307 203.164 448.026L255.995 395.198L308.836 448.026C318.753 445.291 328.443 441.791 337.819 437.557V437.601ZM256.005 235.882L386.369 105.514C379.269 99.3609 371.744 93.7173 363.849 88.6251L256.005 196.464L148.151 88.6251C140.256 93.7173 132.731 99.3609 125.631 105.514L256.005 235.882ZM437.563 337.806C441.795 328.433 445.284 318.743 448 308.824L395.17 255.996L448 203.169C445.283 193.247 441.793 183.554 437.563 174.176L355.75 255.996L437.563 337.806ZM315.53 255.996L423.385 148.147C418.286 140.254 412.638 132.729 406.484 125.628L276.154 255.996L406.528 386.364C412.682 379.26 418.33 371.732 423.429 363.835L315.53 255.996ZM255.995 156.245L337.819 74.436C328.444 70.2082 318.753 66.719 308.836 64L255.995 116.828L203.164 64C193.248 66.7238 183.558 70.213 174.181 74.436L255.995 156.245Z" fill="white"/>
<defs>
<radialGradient id="paint0_radial_4609_14592" cx="0" cy="0" r="1" gradientUnits="userSpaceOnUse" gradientTransform="translate(557.141 513.083) scale(753.77 753.684)">
<stop stop-color="#02E1B3"/>
<stop offset="0.35" stop-color="#0B54FF"/>
<stop offset="0.43" stop-color="#1152FF"/>
<stop offset="0.54" stop-color="#204BFF"/>
<stop offset="0.66" stop-color="#3B40FE"/>
<stop offset="0.8" stop-color="#5F31FE"/>
<stop offset="0.93" stop-color="#8E1EFD"/>
<stop offset="1" stop-color="#A714FD"/>
</radialGradient>
<radialGradient id="paint1_radial_4609_14592" cx="0" cy="0" r="1" gradientUnits="userSpaceOnUse" gradientTransform="translate(481.856 448.838) scale(565.328 565.301)">
<stop stop-color="#02E1B3"/>
<stop offset="0.35" stop-color="#0B54FF"/>
<stop offset="0.43" stop-color="#1152FF"/>
<stop offset="0.54" stop-color="#204BFF"/>
<stop offset="0.66" stop-color="#3B40FE"/>
<stop offset="0.8" stop-color="#5F31FE"/>
<stop offset="0.93" stop-color="#8E1EFD"/>
<stop offset="1" stop-color="#A714FD"/>
</radialGradient>
</defs>
</svg>
