<svg width="500" height="500" viewBox="0 0 500 500" fill="none" xmlns="http://www.w3.org/2000/svg">
<path d="M500 194.338V95.8333C500 77.424 485.076 62.5 466.667 62.5H0V442.708H466.667C485.076 442.708 500 427.784 500 409.375V309.829C480.074 298.302 466.667 276.759 466.667 252.083C466.667 227.407 480.074 205.865 500 194.338Z" fill="url(#paint0_radial_3481_13632)"/>
<path d="M77.207 182.875V316.75H106.645V182.875H77.207Z" fill="white"/>
<path d="M161.942 292V207.625H182.942C190.192 207.625 196.255 208.688 201.13 210.813C206.13 212.813 210.13 215.75 213.13 219.625C216.13 223.5 218.255 228.188 219.505 233.688C220.88 239.063 221.567 245.125 221.567 251.875C221.567 259.25 220.63 265.5 218.755 270.625C216.88 275.75 214.38 279.938 211.255 283.188C208.13 286.313 204.567 288.563 200.567 289.938C196.567 291.313 192.442 292 188.192 292H161.942ZM132.505 182.875V316.75H190.255C200.505 316.75 209.38 315.063 216.88 311.688C224.505 308.188 230.817 303.438 235.817 297.438C240.942 291.438 244.755 284.313 247.255 276.063C249.755 267.813 251.005 258.813 251.005 249.063C251.005 237.938 249.442 228.25 246.317 220C243.317 211.75 239.067 204.875 233.567 199.375C228.192 193.875 221.755 189.75 214.255 187C206.88 184.25 198.88 182.875 190.255 182.875H132.505Z" fill="white"/>
<path d="M295.107 250.375C295.107 244.5 295.732 238.813 296.982 233.313C298.357 227.813 300.482 222.938 303.357 218.688C306.232 214.313 309.982 210.875 314.607 208.375C319.232 205.75 324.857 204.437 331.482 204.437C338.107 204.437 343.732 205.75 348.357 208.375C352.982 210.875 356.732 214.313 359.607 218.688C362.482 222.938 364.544 227.813 365.794 233.313C367.169 238.813 367.857 244.5 367.857 250.375C367.857 256 367.169 261.5 365.794 266.875C364.544 272.125 362.482 276.875 359.607 281.125C356.732 285.375 352.982 288.813 348.357 291.438C343.732 293.938 338.107 295.188 331.482 295.188C324.857 295.188 319.232 293.938 314.607 291.438C309.982 288.813 306.232 285.375 303.357 281.125C300.482 276.875 298.357 272.125 296.982 266.875C295.732 261.5 295.107 256 295.107 250.375ZM265.669 250.375C265.669 260.125 267.169 269.25 270.169 277.75C273.169 286.125 277.482 293.438 283.107 299.688C288.732 305.938 295.607 310.875 303.732 314.5C311.982 318 321.232 319.75 331.482 319.75C341.857 319.75 351.107 318 359.232 314.5C367.357 310.875 374.232 305.938 379.857 299.688C385.482 293.438 389.794 286.125 392.794 277.75C395.794 269.25 397.294 260.125 397.294 250.375C397.294 240.375 395.794 231.125 392.794 222.625C389.794 214 385.482 206.5 379.857 200.125C374.232 193.75 367.357 188.75 359.232 185.125C351.107 181.5 341.857 179.688 331.482 179.688C321.232 179.688 311.982 181.5 303.732 185.125C295.607 188.75 288.732 193.75 283.107 200.125C277.482 206.5 273.169 214 270.169 222.625C267.169 231.125 265.669 240.375 265.669 250.375Z" fill="white"/>
<defs>
<radialGradient id="paint0_radial_3481_13632" cx="0" cy="0" r="1" gradientUnits="userSpaceOnUse" gradientTransform="translate(544.083 443.512) scale(736.104 559.681)">
<stop stop-color="#02E1B3"/>
<stop offset="0.35" stop-color="#0B54FF"/>
<stop offset="0.43" stop-color="#1152FF"/>
<stop offset="0.54" stop-color="#204BFF"/>
<stop offset="0.66" stop-color="#3B40FE"/>
<stop offset="0.8" stop-color="#5F31FE"/>
<stop offset="0.93" stop-color="#8E1EFD"/>
<stop offset="1" stop-color="#A714FD"/>
</radialGradient>
</defs>
</svg>
