<svg width="500" height="500" viewBox="0 0 500 500" fill="none" xmlns="http://www.w3.org/2000/svg">
<circle cx="250" cy="250" r="250" fill="url(#paint0_radial_3481_13635)"/>
<path d="M103.043 377.309C97.0327 370.371 91.5177 363.019 86.5383 355.308L191.865 249.997L86.5383 144.674C91.5204 136.969 97.0353 129.621 103.043 122.684L230.361 249.997L103.043 377.309ZM72.6919 170.105C68.5596 179.258 65.1519 188.721 62.5 198.407L114.092 249.997L62.5 301.586C65.1536 311.272 68.5613 320.735 72.6919 329.888L152.587 249.997L72.6919 170.105ZM250.005 269.672L122.687 396.985C129.617 403 136.966 408.515 144.678 413.488L250.005 308.166L355.322 413.488C363.034 408.515 370.383 403 377.313 396.985L250.005 269.672ZM329.901 427.345L249.995 347.442L170.099 427.334C179.254 431.463 188.717 434.87 198.403 437.525L249.995 385.936L301.597 437.525C311.282 434.855 320.745 431.437 329.901 427.302V427.345ZM250.005 230.353L377.313 103.041C370.38 97.0321 363.031 91.5208 355.322 86.5479L250.005 191.859L144.678 86.5479C136.969 91.5208 129.62 97.0321 122.687 103.041L250.005 230.353ZM427.308 329.888C431.44 320.735 434.848 311.272 437.5 301.586L385.908 249.997L437.5 198.407C434.846 188.718 431.439 179.251 427.308 170.094L347.413 249.997L427.308 329.888ZM308.135 249.997L413.462 144.674C408.482 136.967 402.967 129.619 396.957 122.684L269.682 249.997L397 377.309C403.01 370.371 408.525 363.019 413.505 355.308L308.135 249.997ZM249.995 152.583L329.901 72.6914C320.746 68.5627 311.283 65.1552 301.597 62.5L249.995 114.089L198.403 62.5C188.719 65.16 179.256 68.5674 170.099 72.6914L249.995 152.583Z" fill="url(#paint1_radial_3481_13635)"/>
<path d="M103.043 377.309C97.0327 370.371 91.5177 363.019 86.5383 355.308L191.865 249.997L86.5383 144.674C91.5204 136.969 97.0353 129.621 103.043 122.684L230.361 249.997L103.043 377.309ZM72.6919 170.105C68.5596 179.258 65.1519 188.721 62.5 198.407L114.092 249.997L62.5 301.586C65.1536 311.272 68.5613 320.735 72.6919 329.888L152.587 249.997L72.6919 170.105ZM250.005 269.672L122.687 396.985C129.617 403 136.966 408.515 144.678 413.488L250.005 308.166L355.322 413.488C363.034 408.515 370.383 403 377.313 396.985L250.005 269.672ZM329.901 427.345L249.995 347.442L170.099 427.334C179.254 431.463 188.717 434.87 198.403 437.525L249.995 385.936L301.597 437.525C311.282 434.855 320.745 431.437 329.901 427.302V427.345ZM250.005 230.353L377.313 103.041C370.38 97.0321 363.031 91.5208 355.322 86.5479L250.005 191.859L144.678 86.5479C136.969 91.5208 129.62 97.0321 122.687 103.041L250.005 230.353ZM427.308 329.888C431.44 320.735 434.848 311.272 437.5 301.586L385.908 249.997L437.5 198.407C434.846 188.718 431.439 179.251 427.308 170.094L347.413 249.997L427.308 329.888ZM308.135 249.997L413.462 144.674C408.482 136.967 402.967 129.619 396.957 122.684L269.682 249.997L397 377.309C403.01 370.371 408.525 363.019 413.505 355.308L308.135 249.997ZM249.995 152.583L329.901 72.6914C320.746 68.5627 311.283 65.1552 301.597 62.5L249.995 114.089L198.403 62.5C188.719 65.16 179.256 68.5674 170.099 72.6914L249.995 152.583Z" fill="white"/>
<defs>
<radialGradient id="paint0_radial_3481_13635" cx="0" cy="0" r="1" gradientUnits="userSpaceOnUse" gradientTransform="translate(544.083 501.057) scale(736.104 736.019)">
<stop stop-color="#02E1B3"/>
<stop offset="0.35" stop-color="#0B54FF"/>
<stop offset="0.43" stop-color="#1152FF"/>
<stop offset="0.54" stop-color="#204BFF"/>
<stop offset="0.66" stop-color="#3B40FE"/>
<stop offset="0.8" stop-color="#5F31FE"/>
<stop offset="0.93" stop-color="#8E1EFD"/>
<stop offset="1" stop-color="#A714FD"/>
</radialGradient>
<radialGradient id="paint1_radial_3481_13635" cx="0" cy="0" r="1" gradientUnits="userSpaceOnUse" gradientTransform="translate(470.562 438.318) scale(552.078 552.052)">
<stop stop-color="#02E1B3"/>
<stop offset="0.35" stop-color="#0B54FF"/>
<stop offset="0.43" stop-color="#1152FF"/>
<stop offset="0.54" stop-color="#204BFF"/>
<stop offset="0.66" stop-color="#3B40FE"/>
<stop offset="0.8" stop-color="#5F31FE"/>
<stop offset="0.93" stop-color="#8E1EFD"/>
<stop offset="1" stop-color="#A714FD"/>
</radialGradient>
</defs>
</svg>
