<svg width="32" height="32" viewBox="0 0 32 32" fill="none" xmlns="http://www.w3.org/2000/svg">
<g clip-path="url(#clip0_20042479_120076)">
<path d="M31.2851 22.1745L20.5912 3.64691C18.5528 0.115744 13.4537 0.115744 11.4152 3.64691L0.715126 22.1745C-1.32329 25.7057 1.22316 30.1212 5.30627 30.1212H26.694C30.7771 30.1212 33.3235 25.7057 31.2851 22.1745Z" fill="url(#paint0_radial_20042479_120076)"/>
<path d="M14.4883 5.42815L13.3656 7.37249V17.1318L4.91719 22.0052L3.79449 23.9495C3.61887 24.2568 3.55615 24.5454 3.55615 24.8025L15.1093 18.1291V4.79468C14.8898 4.92012 14.6702 5.12082 14.4883 5.42815Z" fill="white"/>
<path d="M11.5904 10.4521L9.84681 13.469V15.0935L8.4356 15.9088L6.69824 18.9257L11.5904 16.1033V10.4521Z" fill="white"/>
<path d="M28.2054 23.9495L27.0827 22.0052L18.6343 17.1255V7.37249L17.5116 5.42815C17.3359 5.12082 17.1164 4.92012 16.8906 4.79468V18.1353L28.4437 24.8088C28.4437 24.5454 28.381 24.2568 28.2054 23.9495Z" fill="white"/>
<path d="M25.3077 18.9257L23.564 15.9088L22.1528 15.0935V13.469L20.4092 10.4521V16.1033L25.3077 18.9257Z" fill="white"/>
<path d="M5.30605 26.5651H7.55144L15.9999 21.6854L24.4484 26.5651H26.6937C27.045 26.5651 27.3335 26.471 27.553 26.3456L15.9999 19.6721L4.44678 26.3456C4.67257 26.471 4.95481 26.5651 5.30605 26.5651Z" fill="white"/>
<path d="M11.1079 26.565H14.5889L16.0001 25.7497L17.4113 26.565H20.8986L16.0001 23.7363L11.1079 26.565Z" fill="white"/>
</g>
<path d="M13.1589 14.8032C13.0365 14.3736 12.6439 14.0772 12.1972 14.0772H10.5C10.1801 14.0772 9.87959 14.2303 9.6914 14.4889C9.50321 14.7475 9.4501 15.0806 9.5485 15.3849L11.3754 21.0349C11.5089 21.4476 11.8932 21.7273 12.3269 21.7273H14.3808C14.8146 21.7273 15.1989 21.4476 15.3323 21.0349L15.7516 19.7382V20.7273C15.7516 21.2796 16.1993 21.7273 16.7516 21.7273H21C21.5523 21.7273 22 21.2796 22 20.7273V19.5024C22 19.0433 21.6907 18.6565 21.2691 18.539C21.4588 18.2979 21.6211 18.0425 21.7321 17.7742L21.7333 17.7714C21.8674 17.4445 21.9405 17.0999 21.9405 16.7436C21.9405 16.215 21.8035 15.7079 21.5001 15.2628C21.2054 14.8278 20.7983 14.5129 20.3247 14.3039C19.845 14.0897 19.3168 14 18.7677 14C18.2191 14 17.6906 14.0991 17.2102 14.3318C17.1338 14.3688 17.0596 14.4086 16.9877 14.4514C16.7984 14.2155 16.5118 14.0772 16.2077 14.0772H14.5106C14.0638 14.0772 13.6712 14.3736 13.5488 14.8032L13.3539 15.4875L13.1589 14.8032ZM16.1064 18.8597C16.0693 18.8911 16.0348 18.9249 16.003 18.9607L16.3533 17.8774C16.4452 17.9052 16.5426 17.9201 16.6435 17.9201H17.2191L16.1064 18.8597Z" fill="white" stroke="#254AFF" stroke-width="2" stroke-linejoin="round"/>
<defs>
<radialGradient id="paint0_radial_20042479_120076" cx="0" cy="0" r="1" gradientUnits="userSpaceOnUse" gradientTransform="translate(35.0879 33.8128) scale(38.9478)">
<stop offset="0.0600853" stop-color="#02E1B3"/>
<stop offset="0.35" stop-color="#0B54FF"/>
<stop offset="0.43" stop-color="#1152FF"/>
<stop offset="0.54" stop-color="#204BFF"/>
<stop offset="0.66" stop-color="#3B40FE"/>
<stop offset="0.8" stop-color="#5F31FE"/>
<stop offset="0.93" stop-color="#8E1EFD"/>
<stop offset="1" stop-color="#A714FD"/>
</radialGradient>
<clipPath id="clip0_20042479_120076">
<rect width="32" height="29.1211" fill="white" transform="translate(0 1)"/>
</clipPath>
</defs>
</svg>
