<svg width="512" height="512" viewBox="0 0 512 512" fill="none" xmlns="http://www.w3.org/2000/svg">
<g clip-path="url(#clip0_20043142_123125)">
<rect width="512" height="512" fill="url(#paint0_radial_20043142_123125)"/>
<path fill-rule="evenodd" clip-rule="evenodd" d="M99.7402 99.7402V418.909H365.714C375.467 418.909 384.332 416.545 392.312 411.816C400.586 407.088 407.088 400.734 411.816 392.755C416.545 384.48 418.909 375.467 418.909 365.714V291.242C418.909 283.853 417.284 276.613 414.033 269.52C410.782 262.428 405.906 254.005 399.404 244.253C401.177 240.706 402.507 237.012 403.394 233.171C404.576 229.033 405.167 224.896 405.167 220.758V152.935C405.167 143.183 402.803 134.317 398.074 126.338C393.346 118.063 386.844 111.561 378.57 106.833C370.59 102.104 361.725 99.7402 351.972 99.7402H99.7402ZM132.985 259.047V210.198C132.985 205.529 134.182 201.269 136.578 197.417C138.973 193.565 142.147 190.53 146.099 188.312C150.051 185.978 154.422 184.811 159.213 184.811H232.506V159.773H160.47V169.928H132.985V158.373C132.985 153.704 134.182 149.443 136.578 145.591C138.973 141.739 142.147 138.705 146.099 136.487C150.051 134.152 154.422 132.985 159.213 132.985H233.764C238.554 132.985 242.926 134.152 246.878 136.487C250.83 138.705 254.003 141.739 256.399 145.591C258.794 149.443 259.992 153.704 259.992 158.373V186.211C259.992 190.88 258.794 195.141 256.399 198.993C254.003 202.845 250.83 205.938 246.878 208.272C242.926 210.607 238.554 211.774 233.764 211.774H160.47V232.259H259.992V259.047H132.985ZM284.88 385.66C280.09 385.66 275.718 384.376 271.766 381.808C267.814 379.123 264.641 375.738 262.245 371.653C259.85 367.451 258.652 363.074 258.652 358.521V285.685C258.652 281.016 259.85 276.698 262.245 272.729C264.641 268.76 267.814 265.609 271.766 263.274C275.718 260.823 280.09 259.597 284.88 259.597H359.431C364.222 259.597 368.593 260.823 372.545 263.274C376.497 265.609 379.671 268.76 382.066 272.729C384.462 276.698 385.659 281.016 385.659 285.685V358.521C385.659 363.074 384.462 367.451 382.066 371.653C379.671 375.738 376.497 379.123 372.545 381.808C368.593 384.376 364.222 385.66 359.431 385.66H284.88ZM300.868 357.121H358.174V310.197L300.868 357.121ZM286.138 334.009L343.443 287.086H286.138V334.009Z" fill="url(#paint1_linear_20043142_123125)"/>
</g>
<defs>
<radialGradient id="paint0_radial_20043142_123125" cx="0" cy="0" r="1" gradientUnits="userSpaceOnUse" gradientTransform="translate(557.141 513.083) scale(753.77 753.684)">
<stop stop-color="#02E1B3"/>
<stop offset="0.35" stop-color="#0B54FF"/>
<stop offset="0.43" stop-color="#1152FF"/>
<stop offset="0.54" stop-color="#204BFF"/>
<stop offset="0.66" stop-color="#3B40FE"/>
<stop offset="0.8" stop-color="#5F31FE"/>
<stop offset="0.93" stop-color="#8E1EFD"/>
<stop offset="1" stop-color="#A714FD"/>
</radialGradient>
<linearGradient id="paint1_linear_20043142_123125" x1="3.77967" y1="225.482" x2="990.756" y2="225.482" gradientUnits="userSpaceOnUse">
<stop stop-color="#8072FF"/>
<stop offset="0.25" stop-color="white"/>
</linearGradient>
<clipPath id="clip0_20043142_123125">
<rect width="512" height="512" rx="256" fill="white"/>
</clipPath>
</defs>
</svg>
