<svg width="537" height="512" viewBox="0 0 537 512" fill="none" xmlns="http://www.w3.org/2000/svg">
<g clip-path="url(#clip0_20043142_123125)">
<rect x="0.600586" width="535.476" height="512" fill="url(#paint0_radial_20043142_123125)"/>
<path fill-rule="evenodd" clip-rule="evenodd" d="M104.914 99.7402V418.909H383.083C393.283 418.909 402.555 416.545 410.9 411.816C419.554 407.088 426.354 400.734 431.299 392.755C436.245 384.48 438.717 375.467 438.717 365.714V291.242C438.717 283.853 437.017 276.613 433.617 269.52C430.218 262.428 425.118 254.005 418.318 244.253C420.173 240.706 421.563 237.012 422.491 233.171C423.727 229.033 424.345 224.896 424.345 220.758V152.935C424.345 143.183 421.873 134.317 416.927 126.338C411.982 118.063 405.182 111.561 396.528 106.833C388.183 102.104 378.911 99.7402 368.711 99.7402H104.914ZM139.683 259.047V210.198C139.683 205.529 140.936 201.269 143.441 197.417C145.946 193.565 149.265 190.53 153.398 188.312C157.531 185.978 162.103 184.811 167.113 184.811H243.768V159.773H168.428V169.928H139.683V158.373C139.683 153.704 140.936 149.443 143.441 145.591C145.946 141.739 149.265 138.705 153.398 136.487C157.531 134.152 162.103 132.985 167.113 132.985H245.083C250.093 132.985 254.665 134.152 258.798 136.487C262.931 138.705 266.25 141.739 268.756 145.591C271.261 149.443 272.513 153.704 272.513 158.373V186.211C272.513 190.88 271.261 195.141 268.756 198.993C266.25 202.845 262.931 205.938 258.798 208.272C254.665 210.607 250.093 211.774 245.083 211.774H168.428V232.259H272.513V259.047H139.683ZM298.543 385.66C293.533 385.66 288.961 384.376 284.828 381.808C280.694 379.123 277.375 375.738 274.87 371.653C272.365 367.451 271.113 363.074 271.113 358.521V285.685C271.113 281.016 272.365 276.698 274.87 272.729C277.375 268.76 280.694 265.609 284.828 263.274C288.961 260.823 293.533 259.597 298.543 259.597H376.512C381.523 259.597 386.094 260.823 390.228 263.274C394.361 265.609 397.68 268.76 400.185 272.729C402.69 276.698 403.943 281.016 403.943 285.685V358.521C403.943 363.074 402.69 367.451 400.185 371.653C397.68 375.738 394.361 379.123 390.228 381.808C386.094 384.376 381.523 385.66 376.512 385.66H298.543ZM315.264 357.121H375.197V310.197L315.264 357.121ZM299.858 334.009L359.791 287.086H299.858V334.009Z" fill="url(#paint1_linear_20043142_123125)"/>
</g>
<defs>
<radialGradient id="paint0_radial_20043142_123125" cx="0" cy="0" r="1" gradientUnits="userSpaceOnUse" gradientTransform="translate(583.287 513.083) rotate(-138.07) scale(803.753 768.427)">
<stop stop-color="#F7931A"/>
<stop offset="1" stop-color="#BD6800"/>
</radialGradient>
<linearGradient id="paint1_linear_20043142_123125" x1="4.55357" y1="225.482" x2="1036.78" y2="225.482" gradientUnits="userSpaceOnUse">
<stop stop-color="#8072FF"/>
<stop offset="0.25" stop-color="white"/>
</linearGradient>
<clipPath id="clip0_20043142_123125">
<rect x="0.600586" width="535.476" height="512" rx="256" fill="white"/>
</clipPath>
</defs>
</svg>
