<svg width="513" height="512" viewBox="0 0 513 512" fill="none" xmlns="http://www.w3.org/2000/svg">
<g clip-path="url(#clip0_20043142_123125)">
<rect x="0.600586" width="512" height="512" fill="#F7931A"/>
<path fill-rule="evenodd" clip-rule="evenodd" d="M100.341 99.7402V418.909H366.315C376.067 418.909 384.933 416.545 392.912 411.816C401.187 407.088 407.689 400.734 412.417 392.755C417.145 384.48 419.51 375.467 419.51 365.714V291.242C419.51 283.853 417.884 276.613 414.633 269.52C411.383 262.428 406.506 254.005 400.005 244.253C401.778 240.706 403.108 237.012 403.994 233.171C405.177 229.033 405.768 224.896 405.768 220.758V152.935C405.768 143.183 403.403 134.317 398.675 126.338C393.947 118.063 387.445 111.561 379.17 106.833C371.191 102.104 362.325 99.7402 352.573 99.7402H100.341ZM133.585 259.047V210.198C133.585 205.529 134.783 201.269 137.178 197.417C139.574 193.565 142.747 190.53 146.699 188.312C150.651 185.978 155.023 184.811 159.813 184.811H233.107V159.773H161.071V169.928H133.585V158.373C133.585 153.704 134.783 149.443 137.178 145.591C139.574 141.739 142.747 138.705 146.699 136.487C150.651 134.152 155.023 132.985 159.813 132.985H234.364C239.155 132.985 243.526 134.152 247.478 136.487C251.43 138.705 254.604 141.739 256.999 145.591C259.395 149.443 260.592 153.704 260.592 158.373V186.211C260.592 190.88 259.395 195.141 256.999 198.993C254.604 202.845 251.43 205.938 247.478 208.272C243.526 210.607 239.155 211.774 234.364 211.774H161.071V232.259H260.592V259.047H133.585ZM285.481 385.66C280.69 385.66 276.319 384.376 272.367 381.808C268.415 379.123 265.241 375.738 262.846 371.653C260.451 367.451 259.253 363.074 259.253 358.521V285.685C259.253 281.016 260.451 276.698 262.846 272.729C265.241 268.76 268.415 265.609 272.367 263.274C276.319 260.823 280.69 259.597 285.481 259.597H360.032C364.822 259.597 369.194 260.823 373.146 263.274C377.098 265.609 380.272 268.76 382.667 272.729C385.062 276.698 386.26 281.016 386.26 285.685V358.521C386.26 363.074 385.062 367.451 382.667 371.653C380.272 375.738 377.098 379.123 373.146 381.808C369.194 384.376 364.822 385.66 360.032 385.66H285.481ZM301.469 357.121H358.775V310.197L301.469 357.121ZM286.738 334.009L344.044 287.086H286.738V334.009Z" fill="url(#paint0_linear_20043142_123125)"/>
</g>
<defs>
<linearGradient id="paint0_linear_20043142_123125" x1="4.38026" y1="225.482" x2="991.357" y2="225.482" gradientUnits="userSpaceOnUse">
<stop stop-color="#8072FF"/>
<stop offset="0.25" stop-color="white"/>
</linearGradient>
<clipPath id="clip0_20043142_123125">
<rect x="0.600586" width="512" height="512" rx="256" fill="white"/>
</clipPath>
</defs>
</svg>
