<svg width="537" height="512" viewBox="0 0 537 512" fill="none" xmlns="http://www.w3.org/2000/svg">
<rect x="0.777344" width="535.476" height="512" fill="url(#paint0_radial_20043142_123117)"/>
<path fill-rule="evenodd" clip-rule="evenodd" d="M105.091 99.7402V418.909H383.26C393.46 418.909 402.732 416.545 411.077 411.816C419.731 407.088 426.531 400.734 431.476 392.755C436.421 384.48 438.894 375.467 438.894 365.714V291.242C438.894 283.853 437.194 276.613 433.794 269.52C430.394 262.428 425.295 254.005 418.495 244.253C420.349 240.706 421.74 237.012 422.667 233.171C423.904 229.033 424.522 224.896 424.522 220.758V152.935C424.522 143.183 422.049 134.317 417.104 126.338C412.159 118.063 405.359 111.561 396.705 106.833C388.36 102.104 379.088 99.7402 368.888 99.7402H105.091ZM139.86 259.047V210.198C139.86 205.529 141.112 201.269 143.617 197.417C146.122 193.565 149.442 190.53 153.575 188.312C157.708 185.978 162.28 184.811 167.29 184.811H243.944V159.773H168.605V169.928H139.86V158.373C139.86 153.704 141.112 149.443 143.617 145.591C146.122 141.739 149.442 138.705 153.575 136.487C157.708 134.152 162.28 132.985 167.29 132.985H245.26C250.27 132.985 254.841 134.152 258.975 136.487C263.108 138.705 266.427 141.739 268.932 145.591C271.437 149.443 272.69 153.704 272.69 158.373V186.211C272.69 190.88 271.437 195.141 268.932 198.993C266.427 202.845 263.108 205.938 258.975 208.272C254.841 210.607 250.27 211.774 245.26 211.774H168.605V232.259H272.69V259.047H139.86ZM298.72 385.66C293.71 385.66 289.138 384.376 285.005 381.808C280.871 379.123 277.552 375.738 275.047 371.653C272.542 367.451 271.289 363.074 271.289 358.521V285.685C271.289 281.016 272.542 276.698 275.047 272.729C277.552 268.76 280.871 265.609 285.005 263.274C289.138 260.823 293.71 259.597 298.72 259.597H376.689C381.699 259.597 386.271 260.823 390.404 263.274C394.538 265.609 397.857 268.76 400.362 272.729C402.867 276.698 404.12 281.016 404.12 285.685V358.521C404.12 363.074 402.867 367.451 400.362 371.653C397.857 375.738 394.538 379.123 390.404 381.808C386.271 384.376 381.699 385.66 376.689 385.66H298.72ZM315.441 357.121H375.374V310.197L315.441 357.121ZM300.035 334.009L359.968 287.086H300.035V334.009Z" fill="url(#paint1_linear_20043142_123117)"/>
<defs>
<radialGradient id="paint0_radial_20043142_123117" cx="0" cy="0" r="1" gradientUnits="userSpaceOnUse" gradientTransform="translate(583.464 513.083) rotate(-138.07) scale(803.753 768.427)">
<stop stop-color="#F7931A"/>
<stop offset="1" stop-color="#BD6800"/>
</radialGradient>
<linearGradient id="paint1_linear_20043142_123117" x1="4.73033" y1="225.482" x2="1036.96" y2="225.482" gradientUnits="userSpaceOnUse">
<stop stop-color="#8072FF"/>
<stop offset="0.25" stop-color="white"/>
</linearGradient>
</defs>
</svg>
