<svg width="513" height="512" viewBox="0 0 513 512" fill="none" xmlns="http://www.w3.org/2000/svg">
<rect x="0.777344" width="512" height="512" fill="#F7931A"/>
<path fill-rule="evenodd" clip-rule="evenodd" d="M100.518 99.7402V418.909H366.492C376.244 418.909 385.11 416.545 393.089 411.816C401.364 407.088 407.865 400.734 412.594 392.755C417.322 384.48 419.686 375.467 419.686 365.714V291.242C419.686 283.853 418.061 276.613 414.81 269.52C411.559 262.428 406.683 254.005 400.182 244.253C401.955 240.706 403.285 237.012 404.171 233.171C405.353 229.033 405.944 224.896 405.944 220.758V152.935C405.944 143.183 403.58 134.317 398.852 126.338C394.123 118.063 387.622 111.561 379.347 106.833C371.368 102.104 362.502 99.7402 352.75 99.7402H100.518ZM133.762 259.047V210.198C133.762 205.529 134.96 201.269 137.355 197.417C139.75 193.565 142.924 190.53 146.876 188.312C150.828 185.978 155.199 184.811 159.99 184.811H233.284V159.773H161.247V169.928H133.762V158.373C133.762 153.704 134.96 149.443 137.355 145.591C139.75 141.739 142.924 138.705 146.876 136.487C150.828 134.152 155.199 132.985 159.99 132.985H234.541C239.332 132.985 243.703 134.152 247.655 136.487C251.607 138.705 254.781 141.739 257.176 145.591C259.571 149.443 260.769 153.704 260.769 158.373V186.211C260.769 190.88 259.571 195.141 257.176 198.993C254.781 202.845 251.607 205.938 247.655 208.272C243.703 210.607 239.332 211.774 234.541 211.774H161.247V232.259H260.769V259.047H133.762ZM285.657 385.66C280.867 385.66 276.496 384.376 272.544 381.808C268.592 379.123 265.418 375.738 263.023 371.653C260.627 367.451 259.43 363.074 259.43 358.521V285.685C259.43 281.016 260.627 276.698 263.023 272.729C265.418 268.76 268.592 265.609 272.544 263.274C276.496 260.823 280.867 259.597 285.657 259.597H360.209C364.999 259.597 369.371 260.823 373.323 263.274C377.275 265.609 380.448 268.76 382.844 272.729C385.239 276.698 386.436 281.016 386.436 285.685V358.521C386.436 363.074 385.239 367.451 382.844 371.653C380.448 375.738 377.275 379.123 373.323 381.808C369.371 384.376 364.999 385.66 360.209 385.66H285.657ZM301.646 357.121H358.951V310.197L301.646 357.121ZM286.915 334.009L344.221 287.086H286.915V334.009Z" fill="url(#paint0_linear_20043142_123117)"/>
<defs>
<linearGradient id="paint0_linear_20043142_123117" x1="4.55701" y1="225.482" x2="991.533" y2="225.482" gradientUnits="userSpaceOnUse">
<stop stop-color="#8072FF"/>
<stop offset="0.25" stop-color="white"/>
</linearGradient>
</defs>
</svg>
