<svg width="512" height="512" viewBox="0 0 512 512" fill="none" xmlns="http://www.w3.org/2000/svg">
<path d="M256 512C397.385 512 512 397.385 512 256C512 114.615 397.385 0 256 0C114.615 0 0 114.615 0 256C0 397.385 114.615 512 256 512Z" fill="#6366F1"/>
<path d="M190.464 107.354C191.759 104.596 193.813 102.264 196.385 100.631C198.957 98.9979 201.941 98.1317 204.988 98.1335H273.566C276.329 98.1213 279.047 98.8266 281.455 100.18C283.864 101.534 285.879 103.49 287.305 105.856L432.943 347.243C435.93 352.149 435.93 358.259 433.122 363.17C431.711 365.613 429.681 367.64 427.237 369.048C424.793 370.456 422.021 371.196 419.2 371.192H347.52C343.278 371.21 339.2 369.554 336.171 366.584C309.534 341.12 275.966 324.097 239.684 317.653C199.066 311.125 151.215 320.051 104.081 366.579C101.409 369.194 97.9127 370.802 94.188 371.13C90.4633 371.457 86.7402 370.484 83.6524 368.376C80.5724 366.272 78.3406 363.141 77.3558 359.544C76.3709 355.946 76.6973 352.115 78.2764 348.736L190.404 107.349H190.464V107.354ZM232.879 129.809L356.715 339.456H391.002L264.478 129.869H232.879V129.809ZM297.933 302.81L206.712 148.254L133.837 305.024C167.753 286.706 206.795 280.178 244.826 286.464C263.94 289.455 281.86 295.445 297.933 302.805V302.81Z" fill="white"/>
</svg>
