<svg width="897" height="512" viewBox="0 0 897 512" fill="none" xmlns="http://www.w3.org/2000/svg">
<path d="M640 512C781.385 512 896 397.385 896 256C896 114.615 781.385 0 640 0C498.615 0 384 114.615 384 256C384 397.385 498.615 512 640 512Z" fill="white"/>
<path d="M669.172 209.48C663.06 183.346 624.7 196.527 612.156 199.492L622.51 243.732C635.054 240.813 675.056 234.519 669.172 209.48Z" fill="#F7931A"/>
<path d="M639.2 314.882C654.206 311.37 702.1 303.434 695.623 275.933C688.918 247.245 642.803 262.569 627.797 266.081L639.2 314.882Z" fill="#F7931A"/>
<path d="M384 256.002C384 320.036 407.582 378.506 446.443 423.43L473.127 396.749C458.348 379.236 446.261 359.442 437.549 337.869H476.548C506.606 397.753 568.502 438.846 640.068 438.846C741.054 438.846 822.929 356.979 822.929 256.002C822.929 155.024 741.054 73.1572 640.068 73.1572C569.46 73.1572 508.248 113.201 477.779 171.808H438.553C447.173 151.148 458.941 132.129 473.172 115.299L446.489 88.6185C407.582 133.452 384 191.967 384 256.002ZM569.506 182.846L569.552 182.937C574.158 181.842 578.856 180.656 583.6 179.425L575.071 143.029L597.238 137.83L605.585 173.541C611.469 172.036 617.399 170.531 623.237 169.163L614.936 133.725L637.104 128.526L645.633 164.921C674.825 160.726 699.547 164.237 708.213 189.869C714.599 208.614 709.263 222.069 697.951 231.601C720.301 231.738 736.493 241.179 740.461 270.003C745.433 305.761 721.532 321.267 684.769 332.122L693.389 368.883L671.222 374.082L662.738 337.823C656.991 339.192 651.107 340.514 644.995 341.791L653.524 378.232L631.402 383.432L622.781 346.626C617.581 347.812 612.29 348.952 606.908 350.183L578.081 356.933L576.302 329.431C576.302 329.431 592.768 325.828 592.403 325.646C598.652 324.186 599.291 319.261 599.017 316.342L585.425 258.236C586.246 258.054 587.021 257.872 587.751 257.689C586.793 257.78 585.972 257.963 585.379 258.1L575.572 216.596C573.657 212.309 569.506 207.748 560.566 209.891C560.748 209.527 544.465 213.677 544.465 213.677L538.9 190.006L569.506 182.846ZM507.336 273.835H477.825L498.35 306.08H483.07L458.941 268.225L434.812 306.08H419.578L440.103 273.835H410.592V261.657H507.336V273.835ZM458.987 244.235L483.344 205.787H498.761L478.463 237.667H507.382V249.844L410.592 249.981V237.667H439.51L419.213 205.787H434.63L458.987 244.235Z" fill="#F7931A"/>
<path d="M640.021 37.627C693.662 37.627 742.741 57.0106 780.782 89.0734L807.465 62.3924C762.537 23.5796 704.016 0 640.021 0C576.027 0 517.461 23.5796 472.578 62.438L499.216 89.0734C537.257 56.965 586.336 37.627 640.021 37.627Z" fill="#F7931A"/>
<path d="M896.002 255.999C896.002 191.965 872.42 133.495 833.558 88.5703L806.875 115.251C838.986 153.243 858.371 202.363 858.371 255.999C858.371 309.635 838.986 358.709 806.921 396.747L833.604 423.428C872.466 378.503 896.002 320.033 896.002 255.999Z" fill="#F7931A"/>
<path d="M807.419 449.562L780.736 422.881C742.741 454.944 693.662 474.327 640.021 474.327C586.381 474.327 537.257 454.944 499.261 422.881L472.578 449.562C517.461 488.42 575.982 512 640.021 512C704.061 512 762.537 488.42 807.419 449.562Z" fill="#F7931A"/>
<circle cx="256" cy="256" r="256" fill="#4D4DED"/>
<path d="M364 400L305.029 307.429H389.714V272.457H112V307.429H196.686L137.714 400H181.6L250.857 291.314L320.114 400H364ZM389.714 238.514V203.543H306.743L365.029 112H320.8L250.857 222.4L180.914 112H136.686L194.971 203.543H112V238.857L389.714 238.514Z" fill="white"/>
</svg>
