<svg width="896" height="514" viewBox="0 0 896 514" fill="none" xmlns="http://www.w3.org/2000/svg">
<path d="M736.499 493.058C867.136 438.945 929.172 289.176 875.059 158.539C820.946 27.9014 671.177 -34.1338 540.539 19.979C409.902 74.0919 347.867 223.861 401.98 354.498C456.093 485.136 605.862 547.171 736.499 493.058Z" fill="white"/>
<path d="M667.649 210.002C661.537 183.866 623.177 197.048 610.634 200.013L620.988 244.257C633.531 241.337 673.533 235.043 667.649 210.002Z" fill="#F7931A"/>
<path d="M637.682 315.412C652.689 311.9 700.582 303.964 694.105 276.459C687.4 247.769 641.286 263.095 626.279 266.607L637.682 315.412Z" fill="#F7931A"/>
<path d="M382.48 256.526C382.48 320.566 406.062 379.042 444.924 423.97L471.607 397.287C456.829 379.771 444.741 359.976 436.03 338.401H475.028C505.087 398.29 566.983 439.387 638.549 439.387C739.535 439.387 821.409 357.512 821.409 256.526C821.409 155.54 739.535 73.666 638.549 73.666C567.941 73.666 506.729 113.714 476.26 172.326H437.033C445.654 151.663 457.422 132.643 471.653 115.812L444.97 89.1286C406.062 133.966 382.48 192.487 382.48 256.526ZM567.986 183.364L568.032 183.455C572.639 182.361 577.337 181.175 582.081 179.943L573.551 143.544L595.719 138.344L604.066 174.059C609.95 172.554 615.879 171.049 621.718 169.68L613.416 134.239L635.584 129.04L644.114 165.438C673.306 161.242 698.028 164.754 706.694 190.388C713.08 209.135 707.743 222.591 696.431 232.124C718.781 232.261 734.974 241.702 738.942 270.529C743.914 306.29 720.013 321.798 683.249 332.654L691.87 369.417L669.702 374.617L661.218 338.355C655.471 339.724 649.587 341.046 643.475 342.323L652.005 378.768L629.883 383.968L621.262 347.158C616.062 348.344 610.771 349.485 605.389 350.716L576.562 357.467L574.783 329.963C574.783 329.963 591.249 326.359 590.884 326.177C597.133 324.717 597.771 319.791 597.498 316.872L583.905 258.761C584.726 258.579 585.502 258.397 586.231 258.214C585.274 258.305 584.453 258.488 583.86 258.625L574.053 217.117C572.137 212.83 567.986 208.268 559.046 210.412C559.229 210.047 542.945 214.198 542.945 214.198L537.38 190.525L567.986 183.364ZM505.817 274.361H476.305L496.831 306.609H481.551L457.422 268.751L433.293 306.609H418.058L438.584 274.361H409.073V262.182H505.817V274.361ZM457.467 244.758L481.824 206.307H497.241L476.944 238.19H505.862V250.369L409.073 250.506V238.19H437.991L417.693 206.307H433.11L457.467 244.758Z" fill="#F7931A"/>
<path d="M638.503 38.1342C692.144 38.1342 741.223 57.5195 779.264 89.5851L805.947 62.9018C761.019 24.0856 702.498 0.503906 638.503 0.503906C574.509 0.503906 515.943 24.0856 471.06 62.9474L497.698 89.5851C535.739 57.4739 584.818 38.1342 638.503 38.1342Z" fill="#F7931A"/>
<path d="M894.481 256.526C894.481 192.486 870.899 134.011 832.037 89.083L805.354 115.766C837.465 153.761 856.85 202.886 856.85 256.526C856.85 310.167 837.465 359.246 805.4 397.286L832.083 423.97C870.945 379.041 894.481 320.566 894.481 256.526Z" fill="#F7931A"/>
<path d="M805.901 450.106L779.218 423.423C741.223 455.488 692.144 474.874 638.503 474.874C584.863 474.874 535.739 455.488 497.743 423.423L471.06 450.106C515.943 488.968 574.464 512.55 638.503 512.55C702.543 512.55 761.019 488.968 805.901 450.106Z" fill="#F7931A"/>
<ellipse cx="256" cy="257.303" rx="256" ry="255.303" fill="#4D4DED"/>
<path d="M372 402L313.029 309.429H397.714V274.457H120V309.429H204.686L145.714 402H189.6L258.857 293.314L328.114 402H372ZM397.714 240.514V205.543H314.743L373.029 114H328.8L258.857 224.4L188.914 114H144.686L202.971 205.543H120V240.857L397.714 240.514Z" fill="white"/>
</svg>
