<svg width="896" height="512" viewBox="0 0 896 512" fill="none" xmlns="http://www.w3.org/2000/svg">
<circle cx="640" cy="256" r="256" fill="url(#paint0_radial_4365_14380)"/>
<path d="M489.516 386.364C483.361 379.26 477.714 371.732 472.615 363.835L580.47 255.996L472.615 148.147C477.717 140.256 483.364 132.731 489.516 125.628L619.89 255.996L489.516 386.364ZM458.437 174.187C454.205 183.56 450.715 193.25 448 203.169L500.83 255.996L448 308.824C450.717 318.742 454.207 328.432 458.437 337.806L540.25 255.996L458.437 174.187ZM640.005 276.144L509.631 406.512C516.728 412.672 524.253 418.319 532.151 423.412L640.005 315.562L747.849 423.412C755.747 418.319 763.272 412.672 770.369 406.512L640.005 276.144ZM721.819 437.601L639.995 355.781L558.181 437.59C567.556 441.818 577.247 445.307 587.164 448.026L639.995 395.198L692.836 448.026C702.753 445.291 712.443 441.791 721.819 437.557V437.601ZM640.005 235.882L770.369 105.514C763.269 99.3609 755.744 93.7173 747.849 88.6251L640.005 196.464L532.151 88.6251C524.256 93.7173 516.731 99.3609 509.631 105.514L640.005 235.882ZM821.563 337.806C825.795 328.433 829.284 318.743 832 308.824L779.17 255.996L832 203.169C829.283 193.247 825.793 183.554 821.563 174.176L739.75 255.996L821.563 337.806ZM699.53 255.996L807.385 148.147C802.286 140.254 796.638 132.729 790.484 125.628L660.154 255.996L790.528 386.364C796.682 379.26 802.33 371.732 807.429 363.835L699.53 255.996ZM639.995 156.245L721.819 74.436C712.444 70.2082 702.753 66.719 692.836 64L639.995 116.828L587.164 64C577.248 66.7238 567.558 70.213 558.181 74.436L639.995 156.245Z" fill="url(#paint1_radial_4365_14380)"/>
<path d="M489.516 386.364C483.361 379.26 477.714 371.732 472.615 363.835L580.47 255.996L472.615 148.147C477.717 140.256 483.364 132.731 489.516 125.628L619.89 255.996L489.516 386.364ZM458.437 174.187C454.205 183.56 450.715 193.25 448 203.169L500.83 255.996L448 308.824C450.717 318.742 454.207 328.432 458.437 337.806L540.25 255.996L458.437 174.187ZM640.005 276.144L509.631 406.512C516.728 412.672 524.253 418.319 532.151 423.412L640.005 315.562L747.849 423.412C755.747 418.319 763.272 412.672 770.369 406.512L640.005 276.144ZM721.819 437.601L639.995 355.781L558.181 437.59C567.556 441.818 577.247 445.307 587.164 448.026L639.995 395.198L692.836 448.026C702.753 445.291 712.443 441.791 721.819 437.557V437.601ZM640.005 235.882L770.369 105.514C763.269 99.3609 755.744 93.7173 747.849 88.6251L640.005 196.464L532.151 88.6251C524.256 93.7173 516.731 99.3609 509.631 105.514L640.005 235.882ZM821.563 337.806C825.795 328.433 829.284 318.743 832 308.824L779.17 255.996L832 203.169C829.283 193.247 825.793 183.554 821.563 174.176L739.75 255.996L821.563 337.806ZM699.53 255.996L807.385 148.147C802.286 140.254 796.638 132.729 790.484 125.628L660.154 255.996L790.528 386.364C796.682 379.26 802.33 371.732 807.429 363.835L699.53 255.996ZM639.995 156.245L721.819 74.436C712.444 70.2082 702.753 66.719 692.836 64L639.995 116.828L587.164 64C577.248 66.7238 567.558 70.213 558.181 74.436L639.995 156.245Z" fill="white"/>
<circle cx="256" cy="256" r="256" fill="#4D4DED"/>
<path d="M364 400L305.029 307.429H389.714V272.457H112V307.429H196.686L137.714 400H181.6L250.857 291.314L320.114 400H364ZM389.714 238.514V203.543H306.743L365.029 112H320.8L250.857 222.4L180.914 112H136.686L194.971 203.543H112V238.857L389.714 238.514Z" fill="white"/>
<defs>
<radialGradient id="paint0_radial_4365_14380" cx="0" cy="0" r="1" gradientUnits="userSpaceOnUse" gradientTransform="translate(941.141 513.083) scale(753.77 753.684)">
<stop stop-color="#02E1B3"/>
<stop offset="0.35" stop-color="#0B54FF"/>
<stop offset="0.43" stop-color="#1152FF"/>
<stop offset="0.54" stop-color="#204BFF"/>
<stop offset="0.66" stop-color="#3B40FE"/>
<stop offset="0.8" stop-color="#5F31FE"/>
<stop offset="0.93" stop-color="#8E1EFD"/>
<stop offset="1" stop-color="#A714FD"/>
</radialGradient>
<radialGradient id="paint1_radial_4365_14380" cx="0" cy="0" r="1" gradientUnits="userSpaceOnUse" gradientTransform="translate(865.856 448.838) scale(565.328 565.301)">
<stop stop-color="#02E1B3"/>
<stop offset="0.35" stop-color="#0B54FF"/>
<stop offset="0.43" stop-color="#1152FF"/>
<stop offset="0.54" stop-color="#204BFF"/>
<stop offset="0.66" stop-color="#3B40FE"/>
<stop offset="0.8" stop-color="#5F31FE"/>
<stop offset="0.93" stop-color="#8E1EFD"/>
<stop offset="1" stop-color="#A714FD"/>
</radialGradient>
</defs>
</svg>
