<svg width="512" height="512" viewBox="0 0 512 512" fill="none" xmlns="http://www.w3.org/2000/svg">
<g clip-path="url(#clip0_20041659_112829)">
<circle cx="256" cy="256" r="256" fill="#53AE94"/>
<circle cx="256" cy="256" r="192" fill="url(#paint0_linear_20041659_112829)"/>
<mask id="mask0_20041659_112829" style="mask-type:alpha" maskUnits="userSpaceOnUse" x="0" y="0" width="512" height="512">
<path fill-rule="evenodd" clip-rule="evenodd" d="M256 512C397.385 512 512 397.385 512 256C512 114.615 397.385 0 256 0C114.615 0 0 114.615 0 256C0 397.385 114.615 512 256 512ZM256 448C362.039 448 448 362.039 448 256C448 149.961 362.039 64 256 64C149.961 64 64 149.961 64 256C64 362.039 149.961 448 256 448Z" fill="#53AE94"/>
</mask>
<g mask="url(#mask0_20041659_112829)">
<path d="M55.3541 429.819C47.1486 420.346 39.6189 410.309 32.8203 399.781L176.627 255.995L32.8203 112.195C39.6226 101.674 47.1522 91.6419 55.3541 82.1713L229.186 255.995L55.3541 429.819ZM13.9154 146.916C8.27339 159.413 3.62066 172.334 0 185.559L70.4401 255.995L0 326.432C3.62307 339.656 8.27573 352.576 13.9154 365.074L122.999 255.995L13.9154 146.916ZM256.007 282.859L82.1752 456.683C91.637 464.896 101.671 472.426 112.201 479.216L256.007 335.416L399.799 479.216C410.329 472.426 420.363 464.896 429.825 456.683L256.007 282.859ZM365.091 498.134L255.993 389.041L146.909 498.12C159.408 503.757 172.329 508.409 185.553 512.035L255.993 441.598L326.447 512.035C339.671 508.389 352.591 503.722 365.091 498.076V498.134ZM256.007 229.175L429.825 55.3515C420.359 47.1478 410.326 39.6231 399.799 32.8334L256.007 176.619L112.201 32.8334C101.674 39.6231 91.6409 47.1478 82.1752 55.3515L256.007 229.175ZM498.085 365.074C503.727 352.577 508.379 339.657 512 326.432L441.56 255.995L512 185.559C508.377 172.33 503.724 159.405 498.085 146.902L389.001 255.995L498.085 365.074ZM335.373 255.995L479.18 112.195C472.381 101.672 464.851 91.6392 456.646 82.1713L282.872 255.995L456.704 429.819C464.91 420.346 472.44 410.309 479.238 399.781L335.373 255.995ZM255.993 122.994L365.091 13.9147C352.592 8.27767 339.671 3.62529 326.447 0L255.993 70.4368L185.553 0C172.331 3.63178 159.411 8.28398 146.909 13.9147L255.993 122.994Z" fill="white"/>
</g>
<path d="M285.273 219.337V183.144H365.982V128H146.208V183.144H226.927V219.307C161.325 222.397 112 235.72 112 251.68C112 267.64 161.349 280.962 226.927 284.072V400H285.292V284.062C350.774 280.962 400 267.649 400 251.704C400 235.759 350.774 222.446 285.292 219.346L285.273 219.337ZM285.292 274.243V274.213C283.645 274.32 275.185 274.841 256.346 274.841C241.285 274.841 230.69 274.403 226.955 274.204V274.252C168.998 271.62 125.737 261.27 125.737 248.887C125.737 236.503 169.003 226.168 226.955 223.531V263.942C230.751 264.209 241.608 264.866 256.593 264.866C274.591 264.866 283.64 264.097 285.301 263.942V223.531C343.144 226.173 386.306 236.532 386.306 248.872C386.306 261.212 343.125 271.576 285.301 274.218" fill="white"/>
</g>
<defs>
<linearGradient id="paint0_linear_20041659_112829" x1="256" y1="64" x2="256" y2="448" gradientUnits="userSpaceOnUse">
<stop stop-color="#127A5C"/>
<stop offset="1" stop-color="#127A5C" stop-opacity="0"/>
</linearGradient>
<clipPath id="clip0_20041659_112829">
<rect width="512" height="512" fill="white"/>
</clipPath>
</defs>
</svg>
