<svg width="512" height="512" viewBox="0 0 512 512" fill="none" xmlns="http://www.w3.org/2000/svg">
<path d="M256 512C397.385 512 512 397.385 512 256C512 114.615 397.385 0 256 0C114.615 0 0 114.615 0 256C0 397.385 114.615 512 256 512Z" fill="#2B5458"/>
<path d="M130.138 186.244L230.596 127.582C233.391 128.734 236.403 129.365 239.565 129.365C252.719 129.365 263.445 118.515 263.445 105.216C263.445 91.9168 252.719 81.0667 239.565 81.0667C226.406 81.0667 215.757 91.84 215.68 105.105L111.915 165.7C107.714 168.187 104.234 171.726 101.817 175.967C99.4005 180.208 98.1308 185.006 98.1333 189.888V318.882C98.1355 323.766 99.4109 328.565 101.834 332.806C104.256 337.047 107.743 340.583 111.949 343.066L228.796 411.277C230.417 412.207 232.252 412.727 234.086 412.727C235.925 412.727 237.764 412.245 239.377 411.277C240.997 410.331 242.34 408.975 243.269 407.345C244.198 405.715 244.68 403.869 244.668 401.993V398.536C244.667 395.769 243.944 393.049 242.572 390.645C241.2 388.241 239.225 386.236 236.843 384.828L130.138 322.517C128.518 321.557 127.176 320.192 126.242 318.557C125.308 316.923 124.814 315.073 124.809 313.19V195.571C124.81 193.687 125.303 191.836 126.238 190.2C127.173 188.565 128.519 187.201 130.142 186.244H130.138ZM225.237 99.5669C226.49 96.2771 228.833 93.5163 231.875 91.7451C234.917 89.974 238.475 89.2997 241.954 89.8347C242.91 89.984 243.831 90.2058 244.676 90.5386C247.709 91.6213 250.33 93.6183 252.18 96.2541C254.029 98.8898 255.015 102.035 255.002 105.254C255.002 112.721 249.783 118.997 242.842 120.486C241.809 120.708 240.708 120.819 239.603 120.819C231.078 120.819 224.171 113.835 224.171 105.216C224.171 103.211 224.576 101.316 225.237 99.5669V99.5669ZM408.299 173.099L291.379 104.841C289.751 103.887 287.898 103.386 286.012 103.39C284.134 103.39 282.3 103.915 280.648 104.841C279.006 105.796 277.644 107.168 276.702 108.819C275.759 110.469 275.269 112.339 275.281 114.24V119.04C275.281 123.721 277.781 128.068 281.788 130.406L390.076 193.604C391.633 194.513 392.924 195.816 393.82 197.381C394.715 198.946 395.184 200.718 395.179 202.522V320.666C395.179 324.343 393.233 327.761 390.071 329.583L292.186 385.31C288.828 383.552 285.095 382.634 281.306 382.635C268.156 382.635 257.425 393.485 257.425 406.784C257.425 420.087 268.156 430.933 281.31 430.933C293.252 430.933 303.172 422.059 304.934 410.462L408.337 350.089C412.468 347.654 415.892 344.184 418.269 340.02C420.647 335.856 421.895 331.144 421.892 326.349V196.834C421.858 187.063 416.674 177.963 408.299 173.094V173.099ZM291.964 418.039C289.108 420.835 285.268 422.397 281.271 422.387H280.794C272.491 422.127 265.839 415.253 265.839 406.818C265.839 398.199 272.751 391.215 281.271 391.215C282.082 391.215 282.893 391.287 283.661 391.398C291.046 392.55 296.704 399.014 296.704 406.818C296.715 408.912 296.301 410.986 295.487 412.914C294.673 414.843 293.476 416.587 291.968 418.039H291.964Z" fill="white"/>
<path d="M248.559 162.133H267.862V186.095C272.299 186.688 276.958 187.721 281.839 189.201C286.72 190.682 291.524 192.751 296.26 195.413L288.273 216.713C283.985 214.345 279.177 212.424 273.852 210.944C268.752 209.352 263.442 208.529 258.099 208.503C252.775 208.503 248.337 209.685 244.787 212.053C241.387 214.272 239.684 217.527 239.684 221.815C239.684 225.954 241.165 229.21 244.122 231.578C247.079 233.796 252.109 236.087 259.209 238.455L269.415 241.783C280.657 245.483 289.233 250.658 295.151 257.314C301.069 263.821 304.026 272.034 304.026 281.941C304.044 286.728 303.14 291.474 301.363 295.919C299.703 300.26 297.131 304.194 293.82 307.456C290.564 310.856 286.498 313.741 281.617 316.109C276.736 318.327 271.04 319.881 264.534 320.768V346.061H245.231V321.212C238.277 320.619 231.919 319.364 226.151 317.44C220.378 315.443 214.866 312.762 209.732 309.453L219.716 288.375C225.041 291.925 230.439 294.515 235.913 296.141C241.532 297.766 246.934 298.581 252.109 298.581C259.653 298.581 265.05 297.25 268.305 294.588C271.706 291.776 273.408 288.23 273.408 283.938C273.408 280.094 272 276.911 269.193 274.398C266.381 271.735 261.427 269.222 254.328 266.854L243.234 263.305C238.498 261.824 234.061 259.977 229.922 257.758C225.949 255.518 222.293 252.758 219.051 249.549C215.972 246.483 213.49 242.872 211.729 238.899C209.954 234.761 209.067 230.025 209.067 224.7C209.067 219.226 210.027 214.199 211.951 209.613C214.02 204.877 216.76 200.887 220.16 197.632C223.754 194.202 227.972 191.49 232.585 189.645C237.466 187.575 242.791 186.389 248.559 186.095V162.133V162.133Z" fill="white"/>
</svg>
