<svg width="513" height="513" viewBox="0 0 513 513" fill="none" xmlns="http://www.w3.org/2000/svg">
<path d="M256.036 512.072C397.44 512.072 512.071 397.44 512.071 256.036C512.071 114.631 397.44 0 256.036 0C114.631 0 -1.26245e-05 114.631 -2.81977e-05 256.036C-4.37709e-05 397.44 114.631 512.072 256.036 512.072Z" fill="white"/>
<path d="M285.172 209.498C279.06 183.362 240.7 196.544 228.156 199.509L238.51 243.753C251.054 240.834 291.056 234.539 285.172 209.498Z" fill="#F7931A"/>
<path d="M255.2 314.91C270.206 311.397 318.1 303.461 311.623 275.956C304.918 247.266 258.803 262.592 243.797 266.104L255.2 314.91Z" fill="#F7931A"/>
<path d="M0 256.024C0 320.064 23.5816 378.54 62.4435 423.468L89.1268 396.785C74.3483 379.269 62.261 359.474 53.549 337.899H92.5477C122.606 397.788 184.502 438.885 256.068 438.885C357.054 438.885 438.929 357.01 438.929 256.024C438.929 155.038 357.054 73.1641 256.068 73.1641C185.46 73.1641 124.248 113.212 93.7792 171.824H54.5525C63.1733 151.161 74.9413 132.141 89.1724 115.31L62.4891 88.6267C23.5816 133.464 0 191.985 0 256.024ZM185.506 182.862L185.552 182.953C190.158 181.859 194.856 180.673 199.6 179.441L191.071 143.042L213.238 137.843L221.585 173.557C227.469 172.052 233.399 170.547 239.237 169.178L230.936 133.737L253.104 128.538L261.633 164.936C290.825 160.74 315.547 164.252 324.213 189.886C330.599 208.633 325.263 222.089 313.951 231.622C336.301 231.759 352.493 241.2 356.461 270.027C361.433 305.788 337.532 321.296 300.769 332.152L309.389 368.915L287.222 374.115L278.738 337.853C272.991 339.222 267.107 340.544 260.995 341.822L269.524 378.266L247.402 383.466L238.781 346.656C233.581 347.842 228.29 348.983 222.908 350.214L194.081 356.965L192.302 329.461C192.302 329.461 208.768 325.857 208.403 325.675C214.652 324.215 215.291 319.289 215.017 316.37L201.425 258.259C202.246 258.077 203.021 257.895 203.751 257.712C202.793 257.803 201.972 257.986 201.379 258.123L191.572 216.615C189.657 212.328 185.506 207.766 176.566 209.91C176.748 209.545 160.465 213.696 160.465 213.696L154.9 190.023L185.506 182.862ZM123.336 273.859H93.8249L114.35 306.107H99.0703L74.9413 268.249L50.8123 306.107H35.5777L56.1033 273.859H26.5921V261.68H123.336V273.859ZM74.9869 244.256L99.344 205.805H114.761L94.4634 237.688H123.382V249.867L26.5921 250.004V237.688H55.5104L35.2128 205.805H50.6298L74.9869 244.256Z" fill="#F7931A"/>
<path d="M256.023 37.6303C309.663 37.6303 358.742 57.0156 396.783 89.0812L423.466 62.3979C378.538 23.5816 320.017 0 256.023 0C192.029 0 133.462 23.5816 88.5796 62.4435L115.217 89.0812C153.258 56.97 202.337 37.6303 256.023 37.6303Z" fill="#F7931A"/>
<path d="M512.002 256.021C512.002 191.982 488.42 133.506 449.558 88.5781L422.875 115.261C454.986 153.257 474.371 202.381 474.371 256.021C474.371 309.662 454.986 358.741 422.921 396.782L449.604 423.465C488.466 378.537 512.002 320.061 512.002 256.021Z" fill="#F7931A"/>
<path d="M423.421 449.602L396.737 422.919C358.742 454.985 309.663 474.37 256.023 474.37C202.383 474.37 153.258 454.985 115.263 422.919L88.5796 449.602C133.462 488.464 191.983 512.046 256.023 512.046C320.063 512.046 378.538 488.464 423.421 449.602Z" fill="#F7931A"/>
<circle cx="400" cy="400" r="112" fill="url(#paint0_linear_4669_21002)"/>
<path d="M381.029 464V416.274L328 336H364.206L397.669 388.48L431.314 336H465.509L412.48 416.274V464H381.029Z" fill="white"/>
<defs>
<linearGradient id="paint0_linear_4669_21002" x1="288" y1="288" x2="512" y2="512" gradientUnits="userSpaceOnUse">
<stop stop-color="#999999"/>
<stop offset="1"/>
</linearGradient>
</defs>
</svg>
